<svg xmlns="http://www.w3.org/2000/svg" xmlns:xlink="http://www.w3.org/1999/xlink" width="500" zoomAndPan="magnify" viewBox="0 0 375 374.999991" height="500" preserveAspectRatio="xMidYMid meet" version="1.0"><defs><clipPath id="cf33a62a10"><path d="M 84 18.410156 L 194 18.410156 L 194 79 L 84 79 Z M 84 18.410156 " clip-rule="nonzero"/></clipPath><clipPath id="df363f7c4a"><path d="M 266 199.269531 L 374.722656 199.269531 L 374.722656 260.675781 L 266 260.675781 Z M 266 199.269531 " clip-rule="nonzero"/></clipPath><clipPath id="88aee81fd3"><path d="M 60 296.007812 L 145.785156 296.007812 L 145.785156 356.660156 L 60 356.660156 Z M 60 296.007812 " clip-rule="nonzero"/></clipPath><clipPath id="fec1504aad"><path d="M 84.390625 344 L 109.621094 344 L 109.621094 356.660156 L 84.390625 356.660156 Z M 84.390625 344 " clip-rule="nonzero"/></clipPath><clipPath id="db7059d1c6"><path d="M 84.390625 344 L 109 344 L 109 356.660156 L 84.390625 356.660156 Z M 84.390625 344 " clip-rule="nonzero"/></clipPath><clipPath id="eecb408de1"><path d="M 121 223.664062 L 218 223.664062 L 218 356.660156 L 121 356.660156 Z M 121 223.664062 " clip-rule="nonzero"/></clipPath></defs><path fill="#63c442" d="M 0.296875 139.230469 L 0.285156 127.136719 L 12.375 127.132812 L 12.367188 115.066406 L 36.535156 115.054688 L 36.527344 102.988281 L 48.609375 102.984375 L 48.597656 90.898438 L 84.84375 90.886719 L 84.847656 102.988281 L 72.769531 103 L 72.777344 127.136719 L 36.535156 127.148438 L 36.546875 139.230469 L 0.296875 139.230469 " fill-opacity="1" fill-rule="nonzero"/><path fill="#63c442" d="M 36.535156 127.136719 L 36.535156 139.222656 L 0.296875 139.222656 L 0.296875 127.136719 L 12.375 127.136719 L 12.375 115.066406 L 36.535156 115.066406 L 36.535156 102.988281 L 48.609375 102.988281 L 48.609375 90.898438 L 84.84375 90.898438 L 84.84375 102.988281 L 72.769531 102.988281 L 72.769531 127.136719 L 36.535156 127.136719 " fill-opacity="1" fill-rule="nonzero"/><path fill="#63c442" d="M 205.621094 272.109375 L 205.613281 260.027344 L 229.773438 260.019531 L 229.765625 247.945312 L 241.855469 247.9375 L 241.863281 260.027344 L 253.9375 260.019531 L 253.941406 272.109375 L 205.621094 272.109375 " fill-opacity="1" fill-rule="nonzero"/><path fill="#63c442" d="M 241.855469 260.027344 L 253.9375 260.027344 L 253.9375 272.101562 L 205.621094 272.101562 L 205.621094 260.027344 L 229.773438 260.027344 L 229.773438 247.945312 L 241.855469 247.945312 L 241.855469 260.027344 " fill-opacity="1" fill-rule="nonzero"/><path fill="#63c442" d="M 48.609375 235.878906 L 48.597656 223.785156 L 60.679688 223.777344 L 60.671875 211.703125 L 72.769531 211.695312 L 72.761719 199.628906 L 108.992188 199.621094 L 109.003906 211.703125 L 96.921875 211.714844 L 96.929688 223.785156 L 72.769531 223.796875 L 72.777344 235.878906 L 48.609375 235.878906 " fill-opacity="1" fill-rule="nonzero"/><path fill="#63c442" d="M 108.992188 199.628906 L 108.992188 211.703125 L 96.921875 211.703125 L 96.921875 223.785156 L 72.769531 223.785156 L 72.769531 235.871094 L 48.609375 235.871094 L 48.609375 223.785156 L 60.679688 223.785156 L 60.679688 211.703125 L 72.769531 211.703125 L 72.769531 199.628906 L 108.992188 199.628906 " fill-opacity="1" fill-rule="nonzero"/><g clip-path="url(#cf33a62a10)"><path fill="#63c442" d="M 84.84375 78.832031 L 84.832031 54.65625 L 96.921875 54.648438 L 96.914062 42.582031 L 108.992188 42.574219 L 108.984375 30.5 L 133.15625 30.492188 L 133.144531 18.414062 L 193.550781 18.410156 L 193.558594 30.5 L 181.460938 30.507812 L 181.46875 42.582031 L 169.390625 42.589844 L 169.394531 54.65625 L 108.992188 54.667969 L 109.003906 66.734375 L 96.921875 66.738281 L 96.929688 78.832031 L 84.84375 78.832031 " fill-opacity="1" fill-rule="nonzero"/><path fill="#63c442" d="M 181.460938 42.582031 L 169.390625 42.582031 L 169.390625 54.65625 L 108.992188 54.65625 L 108.992188 66.734375 L 96.921875 66.734375 L 96.921875 78.824219 L 84.84375 78.824219 L 84.84375 54.65625 L 96.921875 54.65625 L 96.921875 42.582031 L 108.992188 42.582031 L 108.992188 30.5 L 133.15625 30.5 L 133.15625 18.414062 L 193.550781 18.414062 L 193.550781 30.5 L 181.460938 30.5 L 181.460938 42.582031 " fill-opacity="1" fill-rule="nonzero"/></g><path fill="#63c442" d="M 181.460938 163.394531 L 181.453125 151.304688 L 205.621094 151.296875 L 205.613281 139.222656 L 217.691406 139.214844 L 217.683594 127.136719 L 241.855469 127.132812 L 241.847656 115.066406 L 278.078125 115.054688 L 278.085938 151.304688 L 241.855469 151.3125 L 241.863281 163.394531 L 181.460938 163.394531 " fill-opacity="1" fill-rule="nonzero"/><path fill="#63c442" d="M 181.460938 163.390625 L 181.460938 151.304688 L 205.621094 151.304688 L 205.621094 139.222656 L 217.691406 139.222656 L 217.691406 127.136719 L 241.855469 127.136719 L 241.855469 115.066406 L 278.078125 115.066406 L 278.078125 151.304688 L 241.855469 151.304688 L 241.855469 163.390625 L 181.460938 163.390625 " fill-opacity="1" fill-rule="nonzero"/><path fill="#63c442" d="M 241.855469 223.796875 L 241.847656 211.703125 L 253.9375 211.695312 L 253.925781 199.628906 L 278.078125 199.621094 L 278.070312 187.539062 L 302.238281 187.527344 L 302.234375 175.460938 L 326.402344 175.457031 L 326.410156 187.539062 L 314.328125 187.542969 L 314.339844 199.628906 L 290.167969 199.636719 L 290.175781 211.703125 L 266.007812 211.714844 L 266.015625 223.796875 L 241.855469 223.796875 " fill-opacity="1" fill-rule="nonzero"/><path fill="#63c442" d="M 326.402344 175.460938 L 326.402344 187.539062 L 314.328125 187.539062 L 314.328125 199.628906 L 290.167969 199.628906 L 290.167969 211.703125 L 266.007812 211.703125 L 266.007812 223.785156 L 241.855469 223.785156 L 241.855469 211.703125 L 253.9375 211.703125 L 253.9375 199.628906 L 278.078125 199.628906 L 278.078125 187.539062 L 302.238281 187.539062 L 302.238281 175.460938 L 326.402344 175.460938 " fill-opacity="1" fill-rule="nonzero"/><path fill="#398b40" d="M 36.535156 247.953125 L 36.527344 235.871094 L 24.445312 235.878906 L 24.4375 223.785156 L 36.535156 223.777344 L 36.527344 211.703125 L 60.679688 211.695312 L 60.6875 223.785156 L 48.609375 223.796875 L 48.617188 235.871094 L 72.769531 235.863281 L 72.761719 223.785156 L 96.921875 223.777344 L 96.914062 211.703125 L 133.15625 211.695312 L 133.164062 223.785156 L 108.992188 223.796875 L 109.003906 235.871094 L 96.921875 235.878906 L 96.929688 247.953125 L 36.535156 247.953125 " fill-opacity="1" fill-rule="nonzero"/><path fill="#398b40" d="M 133.15625 211.703125 L 133.15625 223.785156 L 108.992188 223.785156 L 108.992188 235.871094 L 96.921875 235.871094 L 96.921875 247.945312 L 36.535156 247.945312 L 36.535156 235.871094 L 24.445312 235.871094 L 24.445312 223.785156 L 36.535156 223.785156 L 36.535156 211.703125 L 60.679688 211.703125 L 60.679688 223.785156 L 48.609375 223.785156 L 48.609375 235.871094 L 72.769531 235.871094 L 72.769531 223.785156 L 96.921875 223.785156 L 96.921875 211.703125 L 133.15625 211.703125 " fill-opacity="1" fill-rule="nonzero"/><path fill="#398b40" d="M 12.375 151.3125 L 12.367188 139.222656 L 36.535156 139.214844 L 36.527344 127.136719 L 72.769531 127.132812 L 72.761719 102.988281 L 84.84375 102.984375 L 84.832031 90.898438 L 96.921875 90.886719 L 96.929688 102.988281 L 121.074219 102.984375 L 121.082031 115.066406 L 145.226562 115.054688 L 145.21875 102.988281 L 133.15625 103 L 133.144531 90.898438 L 108.992188 90.90625 L 108.984375 78.824219 L 96.921875 78.832031 L 96.914062 66.734375 L 108.992188 66.722656 L 108.984375 54.65625 L 169.390625 54.648438 L 169.378906 42.582031 L 229.773438 42.574219 L 229.78125 54.65625 L 241.855469 54.648438 L 241.863281 66.734375 L 253.9375 66.722656 L 253.941406 78.824219 L 241.855469 78.832031 L 241.863281 90.898438 L 205.621094 90.90625 L 205.628906 102.988281 L 193.550781 103 L 193.558594 115.066406 L 157.300781 115.074219 L 157.304688 127.136719 L 133.15625 127.148438 L 133.164062 139.222656 L 72.769531 139.230469 L 72.777344 151.3125 L 12.375 151.3125 " fill-opacity="1" fill-rule="nonzero"/><path fill="#398b40" d="M 157.300781 127.136719 L 133.15625 127.136719 L 133.15625 139.222656 L 72.769531 139.222656 L 72.769531 151.304688 L 12.375 151.304688 L 12.375 139.222656 L 36.535156 139.222656 L 36.535156 127.136719 L 72.769531 127.136719 L 72.769531 102.988281 L 84.84375 102.988281 L 84.84375 90.898438 L 96.921875 90.898438 L 96.921875 102.988281 L 121.074219 102.988281 L 121.074219 115.066406 L 145.226562 115.066406 L 145.226562 102.988281 L 133.15625 102.988281 L 133.15625 90.898438 L 108.992188 90.898438 L 108.992188 78.824219 L 96.921875 78.824219 L 96.921875 66.734375 L 108.992188 66.734375 L 108.992188 54.65625 L 169.390625 54.65625 L 169.390625 42.582031 L 229.773438 42.582031 L 229.773438 54.65625 L 241.855469 54.65625 L 241.855469 66.734375 L 253.9375 66.734375 L 253.9375 78.824219 L 241.855469 78.824219 L 241.855469 90.898438 L 205.621094 90.898438 L 205.621094 102.988281 L 193.550781 102.988281 L 193.550781 115.066406 L 157.300781 115.066406 L 157.300781 127.136719 " fill-opacity="1" fill-rule="nonzero"/><path fill="#398b40" d="M 157.300781 284.191406 L 157.289062 272.101562 L 169.390625 272.09375 L 169.378906 260.027344 L 205.621094 260.019531 L 205.628906 272.101562 L 193.550781 272.109375 L 193.558594 284.191406 L 157.300781 284.191406 " fill-opacity="1" fill-rule="nonzero"/><path fill="#398b40" d="M 205.621094 260.027344 L 205.621094 272.101562 L 193.550781 272.101562 L 193.550781 284.183594 L 157.300781 284.183594 L 157.300781 272.101562 L 169.390625 272.101562 L 169.390625 260.027344 L 205.621094 260.027344 " fill-opacity="1" fill-rule="nonzero"/><path fill="#398b40" d="M 278.078125 151.3125 L 278.070312 127.136719 L 290.167969 127.132812 L 290.175781 151.3125 L 278.078125 151.3125 " fill-opacity="1" fill-rule="nonzero"/><path fill="#398b40" d="M 290.167969 151.304688 L 278.078125 151.304688 L 278.078125 127.136719 L 290.167969 127.136719 L 290.167969 151.304688 " fill-opacity="1" fill-rule="nonzero"/><path fill="#398b40" d="M 217.691406 284.191406 L 217.683594 272.101562 L 253.9375 272.09375 L 253.925781 260.027344 L 241.855469 260.035156 L 241.847656 235.871094 L 266.007812 235.863281 L 266.015625 247.945312 L 278.078125 247.9375 L 278.085938 272.101562 L 302.238281 272.09375 L 302.25 284.191406 L 217.691406 284.191406 " fill-opacity="1" fill-rule="nonzero"/><path fill="#398b40" d="M 266.007812 235.871094 L 266.007812 247.945312 L 278.078125 247.945312 L 278.078125 272.101562 L 302.238281 272.101562 L 302.238281 284.183594 L 217.691406 284.183594 L 217.691406 272.101562 L 253.9375 272.101562 L 253.9375 260.027344 L 241.855469 260.027344 L 241.855469 235.871094 L 266.007812 235.871094 " fill-opacity="1" fill-rule="nonzero"/><path fill="#398b40" d="M 181.460938 175.472656 L 181.453125 163.390625 L 241.855469 163.378906 L 241.847656 151.304688 L 278.078125 151.296875 L 278.085938 163.390625 L 253.9375 163.394531 L 253.941406 175.472656 L 181.460938 175.472656 " fill-opacity="1" fill-rule="nonzero"/><path fill="#398b40" d="M 278.078125 151.304688 L 278.078125 163.390625 L 253.9375 163.390625 L 253.9375 175.460938 L 181.460938 175.460938 L 181.460938 163.390625 L 241.855469 163.390625 L 241.855469 151.304688 L 278.078125 151.304688 " fill-opacity="1" fill-rule="nonzero"/><path fill="#398b40" d="M 205.621094 260.035156 L 205.613281 247.945312 L 229.773438 247.9375 L 229.78125 260.035156 L 205.621094 260.035156 " fill-opacity="1" fill-rule="nonzero"/><path fill="#398b40" d="M 205.621094 260.027344 L 205.621094 247.945312 L 229.773438 247.945312 L 229.773438 260.027344 L 205.621094 260.027344 " fill-opacity="1" fill-rule="nonzero"/><path fill="#398b40" d="M 302.238281 247.953125 L 302.234375 235.871094 L 266.007812 235.878906 L 266 211.703125 L 290.167969 211.695312 L 290.160156 199.628906 L 314.328125 199.621094 L 314.324219 187.539062 L 338.472656 187.527344 L 338.484375 223.785156 L 350.558594 223.777344 L 350.5625 235.871094 L 326.402344 235.878906 L 326.410156 247.953125 L 302.238281 247.953125 " fill-opacity="1" fill-rule="nonzero"/><path fill="#398b40" d="M 350.558594 223.785156 L 350.558594 235.871094 L 326.402344 235.871094 L 326.402344 247.945312 L 302.238281 247.945312 L 302.238281 235.871094 L 266.007812 235.871094 L 266.007812 211.703125 L 290.167969 211.703125 L 290.167969 199.628906 L 314.328125 199.628906 L 314.328125 187.539062 L 338.472656 187.539062 L 338.472656 223.785156 L 350.558594 223.785156 " fill-opacity="1" fill-rule="nonzero"/><path fill="#1f373a" d="M 205.621094 247.953125 L 205.613281 235.871094 L 241.855469 235.863281 L 241.863281 247.953125 L 205.621094 247.953125 " fill-opacity="1" fill-rule="nonzero"/><path fill="#1f373a" d="M 205.621094 247.945312 L 205.621094 235.871094 L 241.855469 235.871094 L 241.855469 247.945312 L 205.621094 247.945312 " fill-opacity="1" fill-rule="nonzero"/><path fill="#1f373a" d="M 193.550781 296.277344 L 193.542969 272.101562 L 217.691406 272.09375 L 217.703125 284.183594 L 266.007812 284.179688 L 266.015625 296.277344 L 193.550781 296.277344 " fill-opacity="1" fill-rule="nonzero"/><path fill="#1f373a" d="M 266.007812 284.183594 L 266.007812 296.265625 L 193.550781 296.265625 L 193.550781 272.101562 L 217.691406 272.101562 L 217.691406 284.183594 L 266.007812 284.183594 " fill-opacity="1" fill-rule="nonzero"/><path fill="#1f373a" d="M 253.9375 235.878906 L 253.925781 223.785156 L 266.007812 223.777344 L 266.015625 235.878906 L 253.9375 235.878906 " fill-opacity="1" fill-rule="nonzero"/><path fill="#1f373a" d="M 266.007812 223.785156 L 266.007812 235.871094 L 253.9375 235.871094 L 253.9375 223.785156 L 266.007812 223.785156 " fill-opacity="1" fill-rule="nonzero"/><path fill="#1f373a" d="M 217.691406 187.542969 L 217.683594 175.460938 L 253.9375 175.457031 L 253.925781 163.390625 L 278.078125 163.378906 L 278.070312 151.304688 L 290.167969 151.296875 L 290.160156 139.222656 L 302.238281 139.214844 L 302.25 163.390625 L 290.167969 163.394531 L 290.175781 175.460938 L 266.007812 175.472656 L 266.015625 187.542969 L 217.691406 187.542969 " fill-opacity="1" fill-rule="nonzero"/><path fill="#1f373a" d="M 278.078125 163.390625 L 278.078125 151.304688 L 290.167969 151.304688 L 290.167969 139.222656 L 302.238281 139.222656 L 302.238281 163.390625 L 290.167969 163.390625 L 290.167969 175.460938 L 266.007812 175.460938 L 266.007812 187.539062 L 217.691406 187.539062 L 217.691406 175.460938 L 253.9375 175.460938 L 253.9375 163.390625 L 278.078125 163.390625 " fill-opacity="1" fill-rule="nonzero"/><g clip-path="url(#df363f7c4a)"><path fill="#1f373a" d="M 290.167969 260.035156 L 290.160156 247.945312 L 266.007812 247.953125 L 266 235.871094 L 302.238281 235.863281 L 302.25 247.945312 L 326.402344 247.9375 L 326.394531 235.871094 L 350.558594 235.863281 L 350.546875 223.785156 L 338.472656 223.796875 L 338.46875 199.628906 L 350.558594 199.621094 L 350.5625 211.703125 L 362.636719 211.695312 L 362.644531 223.785156 L 374.714844 223.777344 L 374.722656 235.871094 L 362.636719 235.878906 L 362.644531 247.945312 L 338.472656 247.953125 L 338.484375 260.035156 L 290.167969 260.035156 " fill-opacity="1" fill-rule="nonzero"/><path fill="#1f373a" d="M 374.714844 223.785156 L 374.714844 235.871094 L 362.636719 235.871094 L 362.636719 247.945312 L 338.472656 247.945312 L 338.472656 260.027344 L 290.167969 260.027344 L 290.167969 247.945312 L 266.007812 247.945312 L 266.007812 235.871094 L 302.238281 235.871094 L 302.238281 247.945312 L 326.402344 247.945312 L 326.402344 235.871094 L 350.558594 235.871094 L 350.558594 223.785156 L 338.472656 223.785156 L 338.472656 199.628906 L 350.558594 199.628906 L 350.558594 211.703125 L 362.636719 211.703125 L 362.636719 223.785156 L 374.714844 223.785156 " fill-opacity="1" fill-rule="nonzero"/></g><path fill="#1f373a" d="M 121.074219 115.074219 L 121.066406 102.988281 L 96.921875 103 L 96.914062 90.898438 L 84.84375 90.90625 L 84.832031 78.824219 L 108.992188 78.816406 L 109.003906 90.898438 L 133.15625 90.886719 L 133.164062 102.988281 L 145.226562 102.984375 L 145.234375 115.074219 L 121.074219 115.074219 " fill-opacity="1" fill-rule="nonzero"/><path fill="#1f373a" d="M 96.921875 90.898438 L 84.84375 90.898438 L 84.84375 78.824219 L 108.992188 78.824219 L 108.992188 90.898438 L 133.15625 90.898438 L 133.15625 102.988281 L 145.226562 102.988281 L 145.226562 115.066406 L 121.074219 115.066406 L 121.074219 102.988281 L 96.921875 102.988281 L 96.921875 90.898438 " fill-opacity="1" fill-rule="nonzero"/><path fill="#1f373a" d="M 60.679688 175.472656 L 60.671875 163.390625 L 48.609375 163.394531 L 48.597656 151.304688 L 72.769531 151.296875 L 72.761719 139.222656 L 133.15625 139.214844 L 133.144531 127.136719 L 157.300781 127.132812 L 157.289062 115.066406 L 193.550781 115.054688 L 193.542969 102.988281 L 205.621094 102.984375 L 205.613281 90.898438 L 241.855469 90.886719 L 241.847656 78.824219 L 266.007812 78.816406 L 266.015625 90.898438 L 253.9375 90.90625 L 253.941406 102.988281 L 217.691406 103 L 217.703125 115.066406 L 205.621094 115.074219 L 205.628906 127.136719 L 169.390625 127.148438 L 169.394531 139.222656 L 145.226562 139.230469 L 145.234375 151.304688 L 96.921875 151.3125 L 96.929688 163.390625 L 84.84375 163.394531 L 84.847656 175.472656 L 60.679688 175.472656 " fill-opacity="1" fill-rule="nonzero"/><path fill="#1f373a" d="M 169.390625 127.136719 L 169.390625 139.222656 L 145.226562 139.222656 L 145.226562 151.304688 L 96.921875 151.304688 L 96.921875 163.390625 L 84.84375 163.390625 L 84.84375 175.460938 L 60.679688 175.460938 L 60.679688 163.390625 L 48.609375 163.390625 L 48.609375 151.304688 L 72.769531 151.304688 L 72.769531 139.222656 L 133.15625 139.222656 L 133.15625 127.136719 L 157.300781 127.136719 L 157.300781 115.066406 L 193.550781 115.066406 L 193.550781 102.988281 L 205.621094 102.988281 L 205.621094 90.898438 L 241.855469 90.898438 L 241.855469 78.824219 L 266.007812 78.824219 L 266.007812 90.898438 L 253.9375 90.898438 L 253.9375 102.988281 L 217.691406 102.988281 L 217.691406 115.066406 L 205.621094 115.066406 L 205.621094 127.136719 L 169.390625 127.136719 " fill-opacity="1" fill-rule="nonzero"/><path fill="#1f373a" d="M 108.992188 211.714844 L 108.984375 199.628906 L 121.074219 199.621094 L 121.082031 211.714844 L 108.992188 211.714844 " fill-opacity="1" fill-rule="nonzero"/><path fill="#1f373a" d="M 121.074219 211.703125 L 108.992188 211.703125 L 108.992188 199.628906 L 121.074219 199.628906 L 121.074219 211.703125 " fill-opacity="1" fill-rule="nonzero"/><path fill="#1f373a" d="M 60.679688 260.035156 L 60.671875 247.945312 L 96.921875 247.9375 L 96.914062 235.871094 L 108.992188 235.863281 L 108.984375 223.785156 L 145.226562 223.777344 L 145.234375 235.871094 L 121.074219 235.878906 L 121.082031 247.945312 L 108.992188 247.953125 L 109.003906 260.035156 L 60.679688 260.035156 " fill-opacity="1" fill-rule="nonzero"/><path fill="#1f373a" d="M 145.226562 223.785156 L 145.226562 235.871094 L 121.074219 235.871094 L 121.074219 247.945312 L 108.992188 247.945312 L 108.992188 260.027344 L 60.679688 260.027344 L 60.679688 247.945312 L 96.921875 247.945312 L 96.921875 235.871094 L 108.992188 235.871094 L 108.992188 223.785156 L 145.226562 223.785156 " fill-opacity="1" fill-rule="nonzero"/><path fill="#1f373a" d="M 181.460938 260.035156 L 181.453125 247.945312 L 205.621094 247.9375 L 205.628906 260.035156 L 181.460938 260.035156 " fill-opacity="1" fill-rule="nonzero"/><path fill="#1f373a" d="M 181.460938 260.027344 L 181.460938 247.945312 L 205.621094 247.945312 L 205.621094 260.027344 L 181.460938 260.027344 " fill-opacity="1" fill-rule="nonzero"/><path fill="#5c4f2f" d="M 145.226562 223.796875 L 145.21875 211.703125 L 157.300781 211.695312 L 157.304688 223.796875 L 145.226562 223.796875 " fill-opacity="1" fill-rule="nonzero"/><path fill="#5c4f2f" d="M 157.300781 211.703125 L 157.300781 223.785156 L 145.226562 223.785156 L 145.226562 211.703125 L 157.300781 211.703125 " fill-opacity="1" fill-rule="nonzero"/><path fill="#5c4f2f" d="M 72.769531 199.636719 L 72.761719 187.539062 L 84.84375 187.527344 L 84.847656 199.636719 L 72.769531 199.636719 " fill-opacity="1" fill-rule="nonzero"/><path fill="#5c4f2f" d="M 84.84375 199.628906 L 72.769531 199.628906 L 72.769531 187.539062 L 84.84375 187.539062 L 84.84375 199.628906 " fill-opacity="1" fill-rule="nonzero"/><path fill="#5c4f2f" d="M 84.84375 187.542969 L 84.832031 175.460938 L 96.921875 175.457031 L 96.929688 187.542969 L 84.84375 187.542969 " fill-opacity="1" fill-rule="nonzero"/><path fill="#5c4f2f" d="M 96.921875 187.539062 L 84.84375 187.539062 L 84.84375 175.460938 L 96.921875 175.460938 L 96.921875 187.539062 " fill-opacity="1" fill-rule="nonzero"/><path fill="#5c4f2f" d="M 60.679688 211.714844 L 60.671875 199.628906 L 72.769531 199.621094 L 72.777344 211.714844 L 60.679688 211.714844 " fill-opacity="1" fill-rule="nonzero"/><path fill="#5c4f2f" d="M 72.769531 211.703125 L 60.679688 211.703125 L 60.679688 199.628906 L 72.769531 199.628906 L 72.769531 211.703125 " fill-opacity="1" fill-rule="nonzero"/><path fill="#5c4f2f" d="M 96.921875 163.394531 L 96.914062 151.304688 L 108.992188 151.296875 L 109.003906 163.394531 L 96.921875 163.394531 " fill-opacity="1" fill-rule="nonzero"/><path fill="#5c4f2f" d="M 108.992188 163.390625 L 96.921875 163.390625 L 96.921875 151.304688 L 108.992188 151.304688 L 108.992188 163.390625 " fill-opacity="1" fill-rule="nonzero"/><g clip-path="url(#88aee81fd3)"><path fill="#5c4f2f" d="M 108.992188 356.683594 L 108.984375 344.585938 L 84.84375 344.589844 L 84.847656 356.675781 L 60.679688 356.683594 L 60.671875 344.585938 L 72.769531 344.574219 L 72.761719 320.4375 L 84.84375 320.425781 L 84.832031 308.34375 L 108.992188 308.332031 L 108.984375 296.265625 L 133.15625 296.261719 L 133.164062 308.34375 L 145.226562 308.332031 L 145.234375 320.4375 L 133.15625 320.441406 L 133.164062 356.683594 L 108.992188 356.683594 " fill-opacity="1" fill-rule="nonzero"/><path fill="#5c4f2f" d="M 133.15625 308.34375 L 145.226562 308.34375 L 145.226562 320.4375 L 133.15625 320.4375 L 133.15625 356.675781 L 108.992188 356.675781 L 108.992188 344.585938 L 84.84375 344.585938 L 84.84375 356.675781 L 60.679688 356.675781 L 60.679688 344.585938 L 72.769531 344.585938 L 72.769531 320.4375 L 84.84375 320.4375 L 84.84375 308.34375 L 108.992188 308.34375 L 108.992188 296.265625 L 133.15625 296.265625 L 133.15625 308.34375 " fill-opacity="1" fill-rule="nonzero"/></g><path fill="#5c4f2f" d="M 157.300781 260.035156 L 157.289062 247.945312 L 145.226562 247.953125 L 145.21875 235.871094 L 157.300781 235.863281 L 157.289062 223.785156 L 169.390625 223.777344 L 169.394531 235.871094 L 181.460938 235.863281 L 181.46875 247.945312 L 169.390625 247.953125 L 169.394531 260.035156 L 157.300781 260.035156 " fill-opacity="1" fill-rule="nonzero"/><path fill="#5c4f2f" d="M 181.460938 235.871094 L 181.460938 247.945312 L 169.390625 247.945312 L 169.390625 260.027344 L 157.300781 260.027344 L 157.300781 247.945312 L 145.226562 247.945312 L 145.226562 235.871094 L 157.300781 235.871094 L 157.300781 223.785156 L 169.390625 223.785156 L 169.390625 235.871094 L 181.460938 235.871094 " fill-opacity="1" fill-rule="nonzero"/><path fill="#3a301e" d="M 133.15625 223.796875 L 133.144531 211.703125 L 145.226562 211.695312 L 145.234375 223.796875 L 133.15625 223.796875 " fill-opacity="1" fill-rule="nonzero"/><path fill="#3a301e" d="M 145.226562 211.703125 L 145.226562 223.785156 L 133.15625 223.785156 L 133.15625 211.703125 L 145.226562 211.703125 " fill-opacity="1" fill-rule="nonzero"/><path fill="#3a301e" d="M 108.992188 332.519531 L 108.984375 320.4375 L 121.074219 320.425781 L 121.082031 332.519531 L 108.992188 332.519531 " fill-opacity="1" fill-rule="nonzero"/><path fill="#3a301e" d="M 108.992188 320.4375 L 121.074219 320.4375 L 121.074219 332.507812 L 108.992188 332.507812 L 108.992188 320.4375 " fill-opacity="1" fill-rule="nonzero"/><path fill="#3a301e" d="M 84.84375 199.636719 L 84.832031 187.539062 L 96.921875 187.527344 L 96.914062 163.390625 L 108.992188 163.378906 L 108.984375 151.304688 L 169.390625 151.296875 L 169.394531 163.390625 L 181.460938 163.378906 L 181.46875 175.460938 L 133.15625 175.472656 L 133.164062 187.539062 L 108.992188 187.542969 L 109.003906 199.636719 L 84.84375 199.636719 " fill-opacity="1" fill-rule="nonzero"/><path fill="#3a301e" d="M 84.84375 199.628906 L 84.84375 187.539062 L 96.921875 187.539062 L 96.921875 163.390625 L 108.992188 163.390625 L 108.992188 151.304688 L 169.390625 151.304688 L 169.390625 163.390625 L 181.460938 163.390625 L 181.460938 175.460938 L 133.15625 175.460938 L 133.15625 187.539062 L 108.992188 187.539062 L 108.992188 199.628906 L 84.84375 199.628906 " fill-opacity="1" fill-rule="nonzero"/><g clip-path="url(#fec1504aad)"><path fill="#3a301e" d="M 84.84375 356.683594 L 84.832031 344.585938 L 108.992188 344.574219 L 109.003906 356.683594 L 84.84375 356.683594 " fill-opacity="1" fill-rule="nonzero"/></g><g clip-path="url(#db7059d1c6)"><path fill="#3a301e" d="M 108.992188 344.585938 L 108.992188 356.675781 L 84.84375 356.675781 L 84.84375 344.585938 L 108.992188 344.585938 " fill-opacity="1" fill-rule="nonzero"/></g><g clip-path="url(#eecb408de1)"><path fill="#3a301e" d="M 133.15625 356.683594 L 133.144531 320.4375 L 145.226562 320.425781 L 145.21875 308.34375 L 133.15625 308.351562 L 133.144531 284.183594 L 145.226562 284.179688 L 145.21875 260.027344 L 133.15625 260.035156 L 133.144531 247.945312 L 121.074219 247.953125 L 121.066406 235.871094 L 145.226562 235.863281 L 145.21875 223.785156 L 157.300781 223.777344 L 157.304688 235.871094 L 169.390625 235.863281 L 169.378906 223.785156 L 181.460938 223.777344 L 181.46875 235.871094 L 205.621094 235.863281 L 205.628906 247.945312 L 181.460938 247.953125 L 181.46875 260.027344 L 169.390625 260.035156 L 169.394531 272.101562 L 157.300781 272.109375 L 157.304688 284.183594 L 193.550781 284.179688 L 193.558594 296.265625 L 169.390625 296.277344 L 169.394531 308.34375 L 181.460938 308.332031 L 181.46875 320.4375 L 193.550781 320.425781 L 193.558594 332.507812 L 205.621094 332.5 L 205.628906 344.585938 L 217.691406 344.574219 L 217.703125 356.683594 L 133.15625 356.683594 " fill-opacity="1" fill-rule="nonzero"/><path fill="#3a301e" d="M 217.691406 344.585938 L 217.691406 356.675781 L 133.15625 356.675781 L 133.15625 320.4375 L 145.226562 320.4375 L 145.226562 308.34375 L 133.15625 308.34375 L 133.15625 284.183594 L 145.226562 284.183594 L 145.226562 260.027344 L 133.15625 260.027344 L 133.15625 247.945312 L 121.074219 247.945312 L 121.074219 235.871094 L 145.226562 235.871094 L 145.226562 223.785156 L 157.300781 223.785156 L 157.300781 235.871094 L 169.390625 235.871094 L 169.390625 223.785156 L 181.460938 223.785156 L 181.460938 235.871094 L 205.621094 235.871094 L 205.621094 247.945312 L 181.460938 247.945312 L 181.460938 260.027344 L 169.390625 260.027344 L 169.390625 272.101562 L 157.300781 272.101562 L 157.300781 284.183594 L 193.550781 284.183594 L 193.550781 296.265625 L 169.390625 296.265625 L 169.390625 308.34375 L 181.460938 308.34375 L 181.460938 320.4375 L 193.550781 320.4375 L 193.550781 332.507812 L 205.621094 332.507812 L 205.621094 344.585938 L 217.691406 344.585938 " fill-opacity="1" fill-rule="nonzero"/></g></svg>