<svg xmlns="http://www.w3.org/2000/svg" xmlns:xlink="http://www.w3.org/1999/xlink" width="500" zoomAndPan="magnify" viewBox="0 0 375 374.999991" height="500" preserveAspectRatio="xMidYMid meet" version="1.0"><defs><clipPath id="99d44d3519"><path d="M 0 6.816406 L 375 6.816406 L 375 368.316406 L 0 368.316406 Z M 0 6.816406 " clip-rule="nonzero"/></clipPath></defs><path fill="#ffef94" d="M 125.023438 104.136719 L 118.050781 94.683594 L 118.050781 55.535156 L 125.023438 48.636719 L 152.773438 20.808594 L 159.75 13.910156 L 215.25 13.910156 L 222.226562 20.808594 L 249.976562 48.636719 L 256.949219 55.535156 L 256.949219 94.683594 L 249.976562 104.136719 L 222.226562 131.960938 L 215.25 138.859375 L 159.75 138.859375 L 152.773438 131.960938 Z M 222.226562 243.035156 L 215.25 236.136719 L 159.75 236.136719 L 152.773438 243.035156 L 125.023438 270.859375 L 118.050781 277.761719 L 118.050781 316.910156 L 125.023438 326.359375 L 152.773438 354.183594 L 159.75 361.085938 L 215.25 361.085938 L 222.226562 354.183594 L 249.976562 326.359375 L 256.949219 316.910156 L 256.949219 277.761719 L 249.976562 270.859375 Z M 145.800781 205.835938 L 145.800781 166.683594 L 138.898438 159.710938 L 111.074219 131.960938 L 104.175781 124.984375 L 48.601562 124.984375 L 41.699219 131.960938 L 13.875 159.710938 L 6.976562 166.683594 L 6.976562 205.835938 L 13.875 215.285156 L 41.699219 243.035156 L 48.601562 250.011719 L 104.175781 250.011719 L 111.074219 243.035156 L 138.898438 215.285156 Z M 361.125 159.710938 L 333.300781 131.960938 L 326.398438 124.984375 L 270.824219 124.984375 L 263.925781 131.960938 L 236.101562 159.710938 L 229.199219 166.683594 L 229.199219 205.835938 L 236.101562 215.285156 L 263.925781 243.035156 L 270.824219 250.011719 L 326.398438 250.011719 L 333.300781 243.035156 L 361.125 215.285156 L 368.023438 205.835938 L 368.023438 166.683594 Z M 361.125 159.710938 " fill-opacity="1" fill-rule="nonzero"/><path fill="#f7f7f0" d="M 13.875 159.710938 L 27.75 159.710938 L 27.75 187.460938 L 13.875 187.460938 Z M 125.023438 62.511719 L 125.023438 76.386719 L 138.898438 76.386719 L 138.898438 48.636719 L 125.023438 48.636719 Z M 125.023438 284.734375 L 125.023438 298.609375 L 138.898438 298.609375 L 138.898438 270.859375 L 125.023438 270.859375 Z M 236.101562 173.585938 L 236.101562 187.460938 L 249.976562 187.460938 L 249.976562 159.710938 L 236.101562 159.710938 Z M 187.5 39.183594 L 180.523438 48.636719 L 145.800781 83.359375 L 152.773438 90.261719 L 159.75 93.785156 L 215.25 93.785156 L 222.226562 90.261719 L 229.199219 83.359375 L 194.476562 48.636719 Z M 48.601562 203.808594 L 108.148438 203.808594 L 108.148438 152.734375 L 48.601562 152.734375 Z M 319.425781 159.710938 L 312.523438 152.734375 L 286.726562 152.734375 L 277.800781 159.710938 L 269.175781 169.835938 L 269.175781 194.433594 L 277.800781 201.410156 L 284.699219 208.308594 L 308.398438 208.308594 L 319.425781 201.410156 L 326.398438 197.433594 L 326.398438 166.683594 Z M 319.425781 159.710938 " fill-opacity="1" fill-rule="nonzero"/><g clip-path="url(#99d44d3519)"><path fill="#443a1f" d="M 138.898438 131.960938 L 138.898438 118.011719 L 236.101562 118.011719 L 236.101562 131.960938 L 222.226562 131.960938 L 222.226562 145.835938 L 152.773438 145.835938 L 152.773438 131.960938 Z M 208.351562 340.234375 L 138.898438 340.234375 L 138.898438 354.183594 L 152.773438 354.183594 L 152.773438 368.058594 L 222.226562 368.058594 L 222.226562 354.183594 L 236.101562 354.183594 L 236.101562 340.234375 Z M 180.523438 20.808594 L 222.226562 20.808594 L 222.226562 6.933594 L 152.773438 6.933594 L 152.773438 20.808594 Z M 152.773438 20.808594 L 138.898438 20.808594 L 138.898438 34.683594 L 152.773438 34.683594 Z M 138.898438 34.683594 L 125.023438 34.683594 L 125.023438 48.558594 L 138.898438 48.558594 Z M 125.023438 90.261719 L 125.023438 48.636719 L 111.074219 48.636719 L 111.074219 104.136719 L 125.023438 104.136719 Z M 138.898438 118.011719 L 138.898438 104.136719 L 125.023438 104.136719 L 125.023438 118.011719 Z M 263.925781 90.261719 L 263.925781 48.636719 L 249.976562 48.636719 L 249.976562 104.136719 L 263.925781 104.136719 Z M 236.101562 34.683594 L 236.101562 20.808594 L 222.226562 20.808594 L 222.226562 34.683594 Z M 249.976562 48.558594 L 249.976562 34.683594 L 236.101562 34.683594 L 236.101562 48.558594 Z M 249.976562 104.136719 L 236.101562 104.136719 L 236.101562 118.011719 L 249.976562 118.011719 Z M 208.351562 229.160156 L 152.773438 229.160156 L 152.773438 243.035156 L 222.226562 243.035156 L 222.226562 229.160156 Z M 138.898438 256.910156 L 152.773438 256.910156 L 152.773438 243.035156 L 138.898438 243.035156 Z M 125.023438 270.785156 L 138.898438 270.785156 L 138.898438 256.910156 L 125.023438 256.910156 Z M 125.023438 298.609375 L 125.023438 270.859375 L 111.074219 270.859375 L 111.074219 326.359375 L 125.023438 326.359375 Z M 125.023438 326.359375 L 125.023438 340.234375 L 138.898438 340.234375 L 138.898438 326.359375 Z M 249.976562 284.734375 L 249.976562 326.359375 L 263.925781 326.359375 L 263.925781 270.859375 L 249.976562 270.859375 Z M 236.101562 256.910156 L 236.101562 243.035156 L 222.226562 243.035156 L 222.226562 256.910156 Z M 249.976562 270.785156 L 249.976562 256.910156 L 236.101562 256.910156 L 236.101562 270.785156 Z M 236.101562 340.234375 L 249.976562 340.234375 L 249.976562 326.359375 L 236.101562 326.359375 Z M 97.199219 118.011719 L 41.699219 118.011719 L 41.699219 131.960938 L 111.074219 131.960938 L 111.074219 118.011719 Z M 41.625 131.960938 L 27.75 131.960938 L 27.75 145.835938 L 41.625 145.835938 Z M 27.75 145.835938 L 13.875 145.835938 L 13.875 159.710938 L 27.75 159.710938 Z M 13.875 187.460938 L 13.875 159.710938 L 0 159.710938 L 0 215.285156 L 13.875 215.285156 Z M 13.875 215.285156 L 13.875 229.160156 L 27.75 229.160156 L 27.75 215.285156 Z M 152.773438 201.410156 L 152.773438 159.710938 L 138.898438 159.710938 L 138.898438 215.285156 L 152.773438 215.285156 Z M 124.949219 131.960938 L 111.074219 131.960938 L 111.074219 145.835938 L 124.949219 145.835938 Z M 125.023438 145.835938 L 125.023438 159.710938 L 138.898438 159.710938 L 138.898438 145.835938 Z M 111.074219 243.035156 L 125.023438 243.035156 L 125.023438 229.160156 L 27.75 229.160156 L 27.75 243.035156 L 41.699219 243.035156 L 41.699219 256.910156 L 111.074219 256.910156 Z M 138.898438 215.285156 L 125.023438 215.285156 L 125.023438 229.160156 L 138.898438 229.160156 Z M 263.925781 131.960938 L 333.300781 131.960938 L 333.300781 118.011719 L 263.925781 118.011719 Z M 263.851562 131.960938 L 249.976562 131.960938 L 249.976562 145.835938 L 263.851562 145.835938 Z M 249.976562 145.835938 L 236.101562 145.835938 L 236.101562 159.710938 L 249.976562 159.710938 Z M 236.101562 187.460938 L 236.101562 159.710938 L 222.226562 159.710938 L 222.226562 215.285156 L 236.101562 215.285156 Z M 236.101562 215.285156 L 236.101562 229.160156 L 249.976562 229.160156 L 249.976562 215.285156 Z M 361.125 159.710938 L 361.125 215.285156 L 375 215.285156 L 375 159.710938 Z M 347.175781 145.835938 L 347.175781 131.960938 L 333.300781 131.960938 L 333.300781 145.835938 Z M 347.25 145.835938 L 347.25 159.710938 L 361.125 159.710938 L 361.125 145.835938 Z M 319.425781 229.160156 L 249.976562 229.160156 L 249.976562 243.035156 L 263.925781 243.035156 L 263.925781 256.910156 L 333.300781 256.910156 L 333.300781 243.035156 L 347.25 243.035156 L 347.25 229.160156 Z M 347.25 229.160156 L 361.125 229.160156 L 361.125 215.285156 L 347.25 215.285156 Z M 55.574219 215.210938 L 41.699219 215.210938 L 41.699219 145.835938 L 111.074219 145.835938 L 111.074219 215.210938 Z M 55.574219 201.335938 L 97.199219 201.335938 L 97.199219 159.710938 L 55.574219 159.710938 Z M 277.800781 173.585938 L 277.800781 159.710938 L 263.925781 159.710938 L 263.925781 201.410156 L 277.800781 201.410156 Z M 305.550781 159.710938 L 319.425781 159.710938 L 319.425781 145.835938 L 277.800781 145.835938 L 277.800781 159.710938 Z M 319.425781 187.460938 L 319.425781 201.410156 L 333.300781 201.410156 L 333.300781 159.710938 L 319.425781 159.710938 Z M 291.675781 215.285156 L 319.425781 215.285156 L 319.425781 201.410156 L 277.800781 201.410156 L 277.800781 215.285156 Z M 166.648438 270.785156 L 166.648438 256.910156 L 152.773438 256.910156 L 152.773438 270.785156 Z M 208.351562 270.785156 L 222.226562 270.785156 L 222.226562 256.910156 L 208.351562 256.910156 Z M 166.648438 270.859375 L 166.648438 284.734375 L 180.523438 284.734375 L 180.523438 270.859375 Z M 208.351562 270.859375 L 194.476562 270.859375 L 194.476562 284.734375 L 208.351562 284.734375 Z M 194.398438 298.609375 L 194.398438 284.734375 L 180.523438 284.734375 L 180.523438 298.609375 Z M 166.648438 312.484375 L 180.523438 312.484375 L 180.523438 298.609375 L 166.648438 298.609375 Z M 194.476562 298.609375 L 194.476562 312.484375 L 208.351562 312.484375 L 208.351562 298.609375 Z M 152.773438 326.359375 L 166.648438 326.359375 L 166.648438 312.484375 L 152.773438 312.484375 Z M 222.226562 326.359375 L 222.226562 312.484375 L 208.351562 312.484375 L 208.351562 326.359375 Z M 180.523438 34.683594 L 180.523438 48.558594 L 194.398438 48.558594 L 194.398438 34.683594 Z M 180.523438 48.636719 L 166.648438 48.636719 L 166.648438 62.511719 L 180.523438 62.511719 Z M 166.648438 62.511719 L 152.773438 62.511719 L 152.773438 76.386719 L 166.648438 76.386719 Z M 138.898438 76.386719 L 138.898438 90.261719 L 152.773438 90.261719 L 152.773438 76.386719 Z M 194.476562 48.636719 L 194.476562 62.511719 L 208.351562 62.511719 L 208.351562 48.636719 Z M 208.351562 62.511719 L 208.351562 76.386719 L 222.226562 76.386719 L 222.226562 62.511719 Z M 236.101562 76.386719 L 222.226562 76.386719 L 222.226562 90.261719 L 236.101562 90.261719 Z M 166.648438 104.136719 L 222.226562 104.136719 L 222.226562 90.261719 L 152.773438 90.261719 L 152.773438 104.136719 Z M 166.648438 104.136719 " fill-opacity="1" fill-rule="nonzero"/></g></svg>